<?xml version="1.0" encoding="UTF-8"?>
<svg width="160px" height="37px" viewBox="0 0 160 37" version="1.1" xmlns="http://www.w3.org/2000/svg" xmlns:xlink="http://www.w3.org/1999/xlink">
    <!-- Generator: Sketch 41 (35326) - http://www.bohemiancoding.com/sketch -->
    <title>BOOKI@1x</title>
    <desc>Created with Sketch.</desc>
    <defs></defs>
    <g id="Page-2" stroke="none" stroke-width="1" fill="none" fill-rule="evenodd">
        <path d="M22.8200972,17.5818476 C25.1539708,17.3225284 28.5251216,15.0405186 28.5251216,10.2690438 C28.5251216,4.56401945 24.376013,0.777957861 17.9967585,0.777957861 L0,0.777957861 L0,35.5267423 L18.0486224,35.5267423 C25.6207455,35.5267423 29.5105348,31.5332253 29.5105348,25.7763371 C29.5105348,20.5380875 26.0356564,18.0486224 22.8200972,17.7893031 L22.8200972,17.5818476 Z M8.55753647,7.67585089 L16.3371151,7.67585089 C18.5153971,7.67585089 20.2269044,9.07617504 20.2269044,11.2544571 C20.2269044,13.5883306 18.5672609,15.1442464 16.0259319,15.1442464 L8.55753647,15.1442464 L8.55753647,7.67585089 Z M8.55753647,28.6288493 L8.55753647,21.0048622 L16.7001621,21.0048622 C19.1377634,21.0048622 20.7974068,22.4570502 20.7974068,24.73906 C20.7974068,27.1247974 19.2933549,28.6288493 16.5445705,28.6288493 L8.55753647,28.6288493 Z M51.6564019,1.42108547e-14 C41.2836305,1.42108547e-14 33.1410049,8.03889789 33.1410049,18.2042139 C33.1410049,28.3176661 41.2836305,36.3047002 51.6564019,36.3047002 C62.0291734,36.3047002 70.171799,28.3176661 70.171799,18.2042139 C70.171799,8.03889789 62.0291734,1.42108547e-14 51.6564019,1.42108547e-14 L51.6564019,1.42108547e-14 Z M51.6564019,28.4732577 C46.0032415,28.4732577 41.6985413,24.1166937 41.6985413,18.2042139 C41.6985413,12.2398703 46.0032415,7.83144246 51.6564019,7.83144246 C57.3095624,7.83144246 61.6142626,12.2398703 61.6142626,18.2042139 C61.6142626,24.1166937 57.3095624,28.4732577 51.6564019,28.4732577 L51.6564019,28.4732577 Z M92.3176661,1.42108547e-14 C81.9448947,1.42108547e-14 73.802269,8.03889789 73.802269,18.2042139 C73.802269,28.3176661 81.9448947,36.3047002 92.3176661,36.3047002 C102.690438,36.3047002 110.833063,28.3176661 110.833063,18.2042139 C110.833063,8.03889789 102.690438,1.42108547e-14 92.3176661,1.42108547e-14 L92.3176661,1.42108547e-14 Z M92.3176661,28.4732577 C86.6645057,28.4732577 82.3598055,24.1166937 82.3598055,18.2042139 C82.3598055,12.2398703 86.6645057,7.83144246 92.3176661,7.83144246 C97.9708266,7.83144246 102.275527,12.2398703 102.275527,18.2042139 C102.275527,24.1166937 97.9708266,28.4732577 92.3176661,28.4732577 L92.3176661,28.4732577 Z M148.589951,35.5267423 L132.771475,18.2042139 L147.552674,0.777957861 L137.28363,0.777957861 L125.458671,14.5737439 L124.213938,14.5737439 L124.213938,0.777957861 L115.656402,0.777957861 L115.656402,35.5267423 L124.213938,35.5267423 L124.213938,22.4570502 L126.029173,22.4570502 L137.387358,35.5267423 L148.589951,35.5267423 Z M160,35.5267423 L160,0.777957861 L151.442464,0.777957861 L151.442464,35.5267423 L160,35.5267423 Z" id="BOOKI" fill="#FFC676"></path>
    </g>
</svg>