<?xml version="1.0" encoding="UTF-8" standalone="no"?>
<svg width="540px" height="224px" viewBox="0 0 540 224" version="1.1" xmlns="http://www.w3.org/2000/svg" xmlns:xlink="http://www.w3.org/1999/xlink">
    <!-- Generator: Sketch 39.1 (31720) - http://www.bohemiancoding.com/sketch -->
    <title>logo</title>
    <desc>Created with Sketch.</desc>
    <defs></defs>
    <g id="Page-1" stroke="none" stroke-width="1" fill="none" fill-rule="evenodd">
        <g id="Modern-Web-Copy" transform="translate(-330.000000, -248.000000)" fill="#000000">
            <path d="M342.791423,361.776337 L342.791423,459.395088 L369.0475,459.395088 C383.522005,459.395088 395.303578,447.613515 395.303578,433.13901 L395.303578,388.032415 C395.303578,373.55791 383.522005,361.776337 369.0475,361.776337 L342.791423,361.776337 Z M386.214936,388.032415 L386.214936,433.13901 C386.214936,442.564269 378.472759,450.306446 369.0475,450.306446 L351.543448,450.306446 L351.543448,370.864979 L369.0475,370.864979 C378.472759,370.864979 386.214936,378.607156 386.214936,388.032415 L386.214936,388.032415 Z M407.758384,287.0475 C407.758384,265.504052 390.254332,248 369.0475,248 L340.771724,248 C335.049246,248 330,253.049246 330,258.771724 L330,461.07817 C330,467.137265 335.049246,471.849894 340.771724,471.849894 L369.0475,471.849894 C390.254332,471.849894 407.758384,454.345842 407.758384,433.13901 L407.758384,388.032415 C407.758384,376.924074 403.045755,367.162199 395.640194,360.093255 C403.045755,353.024311 407.758384,342.92582 407.758384,331.817479 L407.758384,287.0475 Z M399.006358,331.817479 C399.006358,344.945518 390.590949,355.717242 379.145992,360.093255 C390.590949,364.132652 399.006358,375.240992 399.006358,388.032415 L399.006358,433.13901 C399.006358,449.633213 385.541703,463.097868 369.0475,463.097868 L340.771724,463.097868 C339.761875,463.097868 339.088642,462.088019 339.088642,461.07817 L339.088642,258.771724 C339.088642,257.761875 339.761875,257.088642 340.771724,257.088642 L369.0475,257.088642 C385.541703,257.088642 399.006358,270.553298 399.006358,287.0475 L399.006358,331.817479 Z M369.0475,260.791423 L342.791423,260.791423 L342.791423,358.073557 L369.0475,358.073557 C383.522005,358.073557 395.303578,346.291984 395.303578,331.817479 L395.303578,287.0475 C395.303578,272.572996 383.522005,260.791423 369.0475,260.791423 L369.0475,260.791423 Z M386.214936,331.817479 C386.214936,341.579354 378.472759,349.321531 369.0475,349.321531 L351.543448,349.321531 L351.543448,269.543448 L369.0475,269.543448 C378.472759,269.543448 386.214936,277.285625 386.214936,287.0475 L386.214936,331.817479 Z M533.723647,283.520604 C521.188358,276.283352 505.09443,280.595707 497.857178,293.130996 L424.811423,419.649954 C417.574171,432.185243 421.886526,448.279171 434.421814,455.516424 C446.957103,462.753676 463.051031,458.441321 470.288283,445.906032 L543.334038,319.387073 C550.571291,306.851785 546.258935,290.757856 533.723647,283.520604 L533.723647,283.520604 Z M462.977173,441.423316 C458.264543,449.58583 447.688533,452.419663 439.52602,447.707034 C431.071988,442.826096 428.238155,432.250086 432.950784,424.087572 L505.996539,297.568614 C510.877476,289.114582 521.453486,286.280748 529.907518,291.161686 C538.070032,295.874315 540.903865,306.450326 536.022928,314.904357 L462.977173,441.423316 Z M539.334697,272.504512 C520.677523,261.732788 496.766544,268.139716 485.99482,286.796889 L412.949065,413.315848 C402.177341,431.973022 408.752576,455.592483 427.40975,466.364207 C445.775405,476.967623 469.518077,470.852214 480.289801,452.19504 L553.335556,325.676082 C564.10728,307.018908 557.700352,283.107928 539.334697,272.504512 L539.334697,272.504512 Z M473.178618,447.673268 C464.931517,461.957667 446.829974,467.054381 432.545576,458.807279 C418.261177,450.560178 413.332771,432.167117 421.579873,417.882718 L494.625628,291.36376 C502.872729,277.079361 521.26579,272.150955 535.550189,280.398057 C549.834587,288.645158 554.471475,306.869911 546.224373,321.154309 L473.178618,447.673268 Z M610.121047,265.76081 C596.076498,262.25911 581.794667,270.8405 578.292967,284.88505 L542.950232,426.637017 C539.448533,440.681567 548.029922,454.963398 562.074472,458.465097 C576.119022,461.966797 590.400853,453.385407 593.902552,439.340857 L629.245287,297.58889 C632.746987,283.54434 624.165597,269.262509 610.121047,265.76081 L610.121047,265.76081 Z M565.835788,281.826242 L530.493053,423.57821 C525.281221,444.481726 538.112149,465.373829 559.015665,470.58566 C579.592564,475.716058 600.729849,463.293182 605.941681,442.389666 L641.284416,300.637698 C646.496248,279.734182 633.746754,258.515462 613.169856,253.385065 C592.26634,248.173233 571.04762,260.922726 565.835788,281.826242 Z M597.163727,440.195924 C593.173419,456.200178 577.177944,466.088915 561.173689,462.098607 C545.169435,458.108298 535.362132,441.786205 539.352441,425.781951 L574.695176,284.029983 C578.685485,268.025729 595.007577,258.218426 611.011832,262.208735 C627.016086,266.199044 636.496771,282.439702 632.506462,298.443956 L597.163727,440.195924 Z M585.038165,437.177834 C582.757988,446.323122 573.372785,451.962321 564.227497,449.682145 C554.755591,447.320533 549.116392,437.93533 551.396569,428.790042 L586.739304,287.038074 C589.100915,277.566169 598.486118,271.92697 607.958024,274.288581 C617.103312,276.568757 622.742511,285.953961 620.3809,295.425866 L585.038165,437.177834 Z M720.205694,253.385862 C720.205694,250.692931 717.512763,248 714.819831,248 L704.048107,248 C701.01856,248 698.662245,250.692931 698.662245,253.385862 L698.662245,331.817479 C698.662245,341.242738 690.920068,348.984915 681.158193,348.984915 L663.990758,348.984915 L663.990758,253.385862 C663.990758,250.692931 661.634443,248 658.604896,248 L647.833171,248 C644.803624,248 642.447309,250.692931 642.447309,253.385862 C642.447309,253.385862 642.447309,253.385862 642.447309,253.722478 L642.447309,348.984915 L642.447309,370.528363 L642.447309,466.464032 C642.447309,469.493579 644.803624,471.849894 647.833171,471.849894 L658.604896,471.849894 C661.634443,471.849894 663.990758,469.493579 663.990758,466.464032 L663.990758,370.528363 L681.158193,370.528363 C690.920068,370.528363 698.662245,378.27054 698.662245,388.032415 L698.662245,466.464032 C698.662245,469.493579 701.01856,471.849894 704.048107,471.849894 L714.819831,471.849894 C717.512763,471.849894 720.205694,469.493579 720.205694,466.464032 L720.205694,388.032415 C720.205694,376.924074 715.493064,366.825583 708.087504,359.756639 C715.493064,352.687695 720.205694,342.92582 720.205694,331.817479 L720.205694,253.385862 Z M711.453668,331.817479 C711.453668,344.608902 703.374874,355.717242 691.593301,359.756639 C703.374874,364.132652 711.453668,374.904376 711.453668,388.032415 L711.453668,461.751403 C711.453668,462.424635 710.780435,463.097868 710.107202,463.097868 L709.433969,463.097868 C708.42412,463.097868 707.750887,462.424635 707.750887,461.751403 L707.750887,388.032415 C707.750887,373.55791 695.969314,361.776337 681.49481,361.776337 L655.238732,361.776337 L655.238732,461.751403 C655.238732,462.424635 654.565499,463.097868 653.892266,463.097868 L653.219034,463.097868 C652.545801,463.097868 651.872568,462.424635 651.872568,461.751403 L651.872568,361.776337 L651.872568,358.073557 L651.872568,258.435108 C651.872568,257.761875 652.545801,257.088642 653.219034,257.088642 L653.892266,257.088642 C654.565499,257.088642 655.238732,257.761875 655.238732,258.435108 L655.238732,358.073557 L681.49481,358.073557 C695.969314,358.073557 707.750887,346.291984 707.750887,331.817479 L707.750887,258.435108 C707.750887,257.761875 708.42412,257.088642 709.433969,257.088642 L710.107202,257.088642 C710.780435,257.088642 711.453668,257.761875 711.453668,258.435108 L711.453668,331.817479 Z M757.772115,248 L747.00039,248 C743.970843,248 741.614528,250.692931 741.614528,253.385862 L741.614528,466.464032 C741.614528,469.493579 743.970843,471.849894 747.00039,471.849894 L757.772115,471.849894 C760.801662,471.849894 763.157977,469.493579 763.157977,466.464032 L763.157977,253.385862 C763.157977,250.692931 760.801662,248 757.772115,248 Z M754.069334,461.751403 C754.069334,462.424635 753.396102,463.097868 752.722869,463.097868 L752.049636,463.097868 C751.039787,463.097868 750.366554,462.424635 750.366554,461.751403 L750.366554,258.435108 C750.366554,257.761875 751.039787,257.088642 752.049636,257.088642 L752.722869,257.088642 C753.396102,257.088642 754.069334,257.761875 754.069334,258.435108 L754.069334,461.751403 Z M775.599302,462.397706 C774.508665,462.397706 773.660391,463.245979 773.660391,464.336616 L773.660391,469.641691 C773.660391,470.732328 774.508665,471.580601 775.599302,471.580601 L779.477123,471.580601 C780.56776,471.580601 781.416033,470.732328 781.416033,469.641691 L781.416033,464.336616 C781.416033,463.245979 780.56776,462.397706 779.477123,462.397706 L775.599302,462.397706 Z M815.589328,432.788929 C813.044508,430.122927 809.409051,428.426381 805.531231,428.426381 C797.775589,428.426381 791.47413,434.727839 791.47413,442.362299 L791.47413,469.641691 C791.47413,470.611146 792.443586,471.580601 793.413041,471.580601 L797.290861,471.580601 C798.381499,471.580601 799.229772,470.611146 799.229772,469.641691 L799.229772,442.362299 C799.229772,438.969206 802.016955,436.182022 805.531231,436.182022 C808.924324,436.182022 811.711507,438.969206 811.711507,442.362299 L811.711507,469.641691 C811.711507,470.611146 812.559781,471.580601 813.650418,471.580601 L817.528238,471.580601 C818.618875,471.580601 819.467149,470.611146 819.467149,469.641691 L819.467149,442.362299 C819.467149,438.969206 822.254332,436.182022 825.647426,436.182022 C829.161701,436.182022 831.948884,438.969206 831.948884,442.362299 L831.948884,469.641691 C831.948884,470.611146 832.797157,471.580601 833.887795,471.580601 L837.765615,471.580601 C838.856252,471.580601 839.704526,470.611146 839.704526,469.641691 L839.704526,442.362299 C839.704526,434.727839 833.403067,428.426381 825.647426,428.426381 C821.769605,428.426381 818.134148,430.122927 815.589328,432.788929 Z M868.06109,436.182022 C869.151727,436.182022 870,435.333749 870,434.243112 L870,430.365291 C870,429.274654 869.151727,428.426381 868.06109,428.426381 L853.640444,428.426381 C851.45917,428.426381 849.762623,430.122927 849.762623,432.304201 L849.762623,467.70278 C849.762623,469.762872 851.45917,471.580601 853.640444,471.580601 L868.06109,471.580601 C869.151727,471.580601 870,470.732328 870,469.641691 L870,465.76387 C870,464.673233 869.151727,463.824959 868.06109,463.824959 L857.518265,463.824959 L857.518265,454.157337 L868.06109,454.157337 C869.151727,454.157337 870,453.309064 870,452.218427 L870,448.340606 C870,447.249969 869.151727,446.401696 868.06109,446.401696 L857.518265,446.401696 L857.518265,436.182022 L868.06109,436.182022 Z" id="logo"></path>
        </g>
    </g>
</svg>