<svg width="160px" height="38px" viewBox="45 21 160 38" version="1.1" xmlns="http://www.w3.org/2000/svg" xmlns:xlink="http://www.w3.org/1999/xlink">
    <path d="M67.8200972,39.5818476 C70.1539708,39.3225284 73.5251216,37.0405186 73.5251216,32.2690438 C73.5251216,26.5640194 69.376013,22.7779579 62.9967585,22.7779579 L45,22.7779579 L45,57.5267423 L63.0486224,57.5267423 C70.6207455,57.5267423 74.5105348,53.5332253 74.5105348,47.7763371 C74.5105348,42.5380875 71.0356564,40.0486224 67.8200972,39.7893031 L67.8200972,39.5818476 Z M53.5575365,29.6758509 L61.3371151,29.6758509 C63.5153971,29.6758509 65.2269044,31.076175 65.2269044,33.2544571 C65.2269044,35.5883306 63.5672609,37.1442464 61.0259319,37.1442464 L53.5575365,37.1442464 L53.5575365,29.6758509 Z M53.5575365,50.6288493 L53.5575365,43.0048622 L61.7001621,43.0048622 C64.1377634,43.0048622 65.7974068,44.4570502 65.7974068,46.73906 C65.7974068,49.1247974 64.2933549,50.6288493 61.5445705,50.6288493 L53.5575365,50.6288493 Z M96.6564019,22 C86.2836305,22 78.1410049,30.0388979 78.1410049,40.2042139 C78.1410049,50.3176661 86.2836305,58.3047002 96.6564019,58.3047002 C107.029173,58.3047002 115.171799,50.3176661 115.171799,40.2042139 C115.171799,30.0388979 107.029173,22 96.6564019,22 L96.6564019,22 Z M96.6564019,50.4732577 C91.0032415,50.4732577 86.6985413,46.1166937 86.6985413,40.2042139 C86.6985413,34.2398703 91.0032415,29.8314425 96.6564019,29.8314425 C102.309562,29.8314425 106.614263,34.2398703 106.614263,40.2042139 C106.614263,46.1166937 102.309562,50.4732577 96.6564019,50.4732577 L96.6564019,50.4732577 Z M137.317666,22 C126.944895,22 118.802269,30.0388979 118.802269,40.2042139 C118.802269,50.3176661 126.944895,58.3047002 137.317666,58.3047002 C147.690438,58.3047002 155.833063,50.3176661 155.833063,40.2042139 C155.833063,30.0388979 147.690438,22 137.317666,22 L137.317666,22 Z M137.317666,50.4732577 C131.664506,50.4732577 127.359806,46.1166937 127.359806,40.2042139 C127.359806,34.2398703 131.664506,29.8314425 137.317666,29.8314425 C142.970827,29.8314425 147.275527,34.2398703 147.275527,40.2042139 C147.275527,46.1166937 142.970827,50.4732577 137.317666,50.4732577 L137.317666,50.4732577 Z M193.589951,57.5267423 L177.771475,40.2042139 L192.552674,22.7779579 L182.28363,22.7779579 L170.458671,36.5737439 L169.213938,36.5737439 L169.213938,22.7779579 L160.656402,22.7779579 L160.656402,57.5267423 L169.213938,57.5267423 L169.213938,44.4570502 L171.029173,44.4570502 L182.387358,57.5267423 L193.589951,57.5267423 Z M205,57.5267423 L205,22.7779579 L196.442464,22.7779579 L196.442464,57.5267423 L205,57.5267423 Z" id="BOOKI" stroke="none" fill="#FFFFFF" fill-rule="evenodd"></path>
</svg>